<svg xmlns="http://www.w3.org/2000/svg" width="100" height="100" viewBox="0 0 100 100"><defs><linearGradient id="t" x1="0" y1="0" x2="0" y2="1"><stop offset="0" stop-color="#2A2420"/><stop offset="1" stop-color="#0D0C0B"/></linearGradient></defs><rect width="100" height="100" rx="22" fill="url(#t)"/><g transform="translate(50 50) scale(1.06) translate(-50 -50)"><g fill="#E8DCCF"><circle cx="50" cy="52" r="24"/><circle cx="72.0" cy="52.0" r="12"/><circle cx="70.4" cy="64.7" r="9"/><circle cx="57.2" cy="71.7" r="13"/><circle cx="44.0" cy="74.2" r="10"/><circle cx="33.1" cy="66.1" r="12"/><circle cx="26.5" cy="57.0" r="8"/><circle cx="30.3" cy="44.8" r="13"/><circle cx="35.8" cy="33.9" r="10"/><circle cx="46.9" cy="30.2" r="11"/><circle cx="59.0" cy="29.7" r="9"/><circle cx="67.2" cy="40.0" r="13"/></g><ellipse cx="30" cy="66" rx="6" ry="3.8" fill="#C9605C" opacity="0.4"/><ellipse cx="70" cy="66" rx="6" ry="3.8" fill="#C9605C" opacity="0.4"/><path d="M 30.80 58.00 Q 37.00 44.40 43.20 58.00 Q 37.00 71.60 30.80 58.00 Z" fill="#241F1C"/><circle cx="37" cy="58" r="2.6" fill="#241F1C"/><circle cx="35.1" cy="55.9" r="1.7" fill="#fff"/><path d="M 56.80 58.00 Q 63.00 44.40 69.20 58.00 Q 63.00 71.60 56.80 58.00 Z" fill="#241F1C"/><circle cx="63" cy="58" r="2.6" fill="#241F1C"/><circle cx="61.1" cy="55.9" r="1.7" fill="#fff"/><path d="M 44.80 71.00 Q 50.00 77.60 55.20 71.00 Q 50.00 82.68 44.80 71.00 Z" fill="#241F1C"/></g><rect x="0.5" y="0.5" width="99" height="99" rx="21.5" fill="none" stroke="#fff" stroke-opacity="0.10"/></svg>